<svg width="876" height="243" viewBox="0 0 876 243" fill="none" xmlns="http://www.w3.org/2000/svg">
<path d="M875.399 47.42C875.797 48.3903 875.996 49.3606 875.996 50.3309C875.996 53.0924 874.429 55.3564 872.489 56.3764C871.37 56.9735 870.251 57.2472 869.057 57.2472C866.321 57.2472 864.107 55.7047 863.037 53.8139C862.416 52.6943 862.117 51.5499 862.117 50.3059C862.117 47.2209 863.908 44.8823 866.221 43.9369C867.191 43.5389 868.111 43.3398 869.032 43.3398C872.116 43.3647 874.454 45.1311 875.399 47.42ZM869.082 44.7828C866.719 44.7828 865.152 46.1263 864.281 47.7683C863.883 48.4898 863.684 49.3357 863.684 50.3059C863.684 51.8982 864.281 53.0178 865.027 53.9134C865.798 54.8588 867.34 55.7545 869.106 55.7545C872.116 55.7545 874.553 53.3163 874.553 50.281C874.529 47.196 872.216 44.7828 869.082 44.7828ZM872.141 49.0869C872.141 50.1318 871.494 50.8782 870.698 51.1767L872.464 53.2915H870.599L869.007 51.3508H868.136V53.2915H866.545V46.997H869.579C870.997 46.9721 872.141 47.7186 872.141 49.0869ZM869.529 48.3157H868.111V49.9825H869.529C870.076 49.9825 870.599 49.6591 870.599 49.1117C870.599 48.6141 870.076 48.3157 869.529 48.3157Z" fill="#003D6A"/>
<path d="M127.578 124.372V6.3457H153.794V124.372H127.578Z" fill="#003D6A"/>
<path d="M209.038 60.2844C203.342 60.2844 199.387 61.8766 197.149 65.5339H170.535C172.948 54.6866 179.837 47.7951 189.388 43.3169C194.637 40.8539 200.904 39.6348 208.242 39.6348C225.727 39.6348 238.089 46.1282 243.312 58.3936C245.053 62.4986 245.924 67.1013 245.924 72.2512V124.373H220.678V118.302C214.012 123.975 205.829 126.836 196.104 126.836C178.743 126.836 165.461 116.859 165.461 99.9416C165.461 81.9292 180.509 73.3956 199.711 73.3956H220.678V71.7536C220.678 65.0114 215.778 60.2844 209.038 60.2844ZM203.466 107.157C210.008 107.157 214.858 104.246 217.967 100.265C219.783 97.9761 220.678 95.1897 220.678 91.9057V90.0895H202.645C196.9 90.0895 192 93.1496 192 98.623C192 104.246 197.497 107.157 203.466 107.157Z" fill="#003D6A"/>
<path d="M343.922 55.6072C348.971 62.0758 352.602 72.525 352.602 83.223C352.602 96.5333 347.429 107.654 340.713 114.77C334.346 121.512 324.646 126.811 312.433 126.811C302.061 126.811 293.53 123.801 286.864 117.805V152.237H260.648V42.073H286.864V48.641C293.53 42.6203 302.061 39.6348 312.433 39.6348C327.382 39.61 337.007 46.7751 343.922 55.6072ZM307.061 104.544C318.85 104.544 326.884 95.5381 326.884 83.223C326.884 71.4552 319.124 61.9016 307.061 61.9016C295.719 61.9016 286.889 71.5796 286.889 83.223C286.889 95.14 295.669 104.544 307.061 104.544Z" fill="#003D6A"/>
<path d="M447.838 55.6072C452.888 62.0758 456.519 72.525 456.519 83.223C456.519 96.5333 451.346 107.654 444.63 114.77C438.263 121.512 428.562 126.811 416.35 126.811C405.978 126.811 397.447 123.801 390.781 117.805V152.237H364.59V42.073H390.806V48.641C397.471 42.6203 406.003 39.6348 416.375 39.6348C431.273 39.61 440.924 46.7751 447.838 55.6072ZM410.952 104.544C422.742 104.544 430.776 95.5381 430.776 83.223C430.776 71.4552 423.016 61.9016 410.952 61.9016C399.61 61.9016 390.781 71.5796 390.781 83.223C390.806 95.14 399.561 104.544 410.952 104.544Z" fill="#003D6A"/>
<path d="M55.9453 36.9225C56.791 36.8479 57.6615 36.823 58.5569 36.823C69.2273 36.823 77.3606 41.4754 81.9123 47.9688C83.1062 49.6606 84.1509 52.3475 85.0214 54.1886H113.799C111.187 41.4007 104.721 31.1754 94.4481 23.5376C84.1757 15.8748 72.212 12.0684 58.5569 12.0684C57.6615 12.0684 56.791 12.0932 55.9453 12.143V36.9225Z" fill="#003D6A"/>
<path d="M85.7937 83.2234C81.7643 94.3941 72.5117 102.231 58.583 102.231C54.3298 102.231 50.2756 101.41 46.4452 99.7679C35.7997 95.215 27.2684 84.3678 27.2684 69.4403C27.2684 66.9027 27.542 64.4646 28.0643 62.0762H0.704476C0.406005 64.4646 0.207031 66.9276 0.207031 69.4403C0.207031 86.8806 7.84292 101.062 17.2448 110.267C26.6964 119.522 40.9732 126.836 58.5582 126.836C65.4479 126.836 71.9894 125.841 78.2324 123.876C96.8371 118.004 110.243 103.923 113.974 83.2234H85.7937Z" fill="#003D6A"/>
<path d="M496.862 53.1181V126.636H483.854V53.1181H469.129V42.1465H483.854V29.6323C483.854 20.7256 486.49 13.6102 491.738 8.31094C496.986 2.98682 504.025 0.349609 512.805 0.349609C517.829 0.349609 522.406 1.3697 526.51 3.43466L523.252 14.058C520.043 12.814 516.859 12.1672 513.651 12.1672C508.627 12.1672 504.572 13.7595 501.488 16.9689C498.404 20.1783 496.862 24.3828 496.862 29.6572V42.1714H527.53V53.143H496.862V53.1181Z" fill="#003D6A"/>
<path d="M595.359 43.5404C600.831 45.7049 605.631 48.765 609.76 52.6959C613.864 56.6268 617.072 61.3289 619.361 66.7525C621.649 72.1762 622.793 78.0227 622.793 84.3171C622.793 90.6115 621.649 96.483 619.361 101.956C617.072 107.43 613.889 112.182 609.76 116.187C605.656 120.193 600.856 123.278 595.359 125.442C589.887 127.607 584.116 128.701 578.047 128.701C571.879 128.701 566.059 127.607 560.587 125.442C555.115 123.278 550.314 120.193 546.186 116.187C542.082 112.182 538.873 107.455 536.585 101.956C534.296 96.483 533.152 90.5866 533.152 84.3171C533.152 79.6399 533.923 74.7885 535.465 69.7629C537.008 64.7374 539.868 59.7864 544.022 54.935C548.2 50.0836 553.349 46.4264 559.517 43.9634C565.686 41.5004 571.854 40.2812 578.022 40.2812C584.116 40.2813 589.887 41.351 595.359 43.5404ZM590.235 114.819C594.115 113.227 597.547 110.963 600.507 108.052C603.467 105.141 605.78 101.633 607.447 97.5031C609.113 93.398 609.934 88.9944 609.934 84.3171C609.934 79.6399 609.113 75.2612 607.447 71.2059C605.78 67.1506 603.467 63.6925 600.507 60.8314C597.547 57.9703 594.115 55.756 590.235 54.1389C586.355 52.5466 582.301 51.7505 578.072 51.7505C573.844 51.7505 569.989 52.4471 566.506 53.8155C563.024 55.1838 559.89 57.0248 557.08 59.2888C554.294 61.5777 551.707 64.8618 549.369 69.141C547.031 73.4202 545.862 78.4705 545.862 84.3171C545.862 90.2632 547.28 95.861 550.14 101.11C553.001 106.36 557.03 110.366 562.228 113.102C567.427 115.839 572.7 117.207 578.072 117.207C582.301 117.207 586.355 116.411 590.235 114.819Z" fill="#003D6A"/>
<path d="M698.13 41.9979L697.111 54.512L692.136 54.3379C688.132 54.3379 684.102 54.9847 680.048 56.3033C675.994 57.6219 672.362 59.861 669.179 63.0704C665.97 66.2798 663.358 70.4346 661.294 75.5846C659.23 80.7345 658.21 86.9045 658.21 94.0946V126.661H645.027V42.1969H658.21V62.9212C661.866 56.3033 666.567 51.029 672.337 47.1478C678.108 43.2667 684.699 41.3261 692.111 41.3261C694.549 41.3012 696.539 41.5252 698.13 41.9979Z" fill="#003D6A"/>
<path d="M840.576 49.0129C846.57 54.9589 849.58 62.5968 849.58 71.9762V126.635H836.571V74.2153C836.571 70.782 835.85 67.3985 834.432 64.0149C833.014 60.6562 830.527 57.82 826.97 55.5312C823.414 53.2423 819.384 52.0978 814.808 52.0978C806.923 52.0978 800.655 54.8594 795.954 60.4074C791.253 65.9555 788.94 73.6182 788.94 83.4454V126.635H775.932V74.2153C775.932 67.5974 773.892 62.2484 769.838 58.1932C765.784 54.1379 760.61 52.0978 754.342 52.0978C746.458 52.0978 740.215 54.8594 735.588 60.4074C730.962 65.9555 728.649 73.6182 728.649 83.4454V126.635H715.641V42.1711H728.649V55.0335C731.733 50.3563 735.738 46.699 740.638 44.0619C745.537 41.4247 751.134 40.131 757.427 40.131C763.819 40.131 769.614 41.6735 774.813 44.7585C780.011 47.8435 783.816 52.0232 786.204 57.2726C789.512 52.0232 793.915 47.8435 799.387 44.7585C804.859 41.6735 811.102 40.131 818.066 40.131C827.07 40.1061 834.581 43.0668 840.576 49.0129Z" fill="#003D6A"/>
<path d="M845.948 242.324H554.715C529.593 242.324 509.223 221.948 509.223 196.82C509.223 171.692 529.593 151.316 554.715 151.316H845.948C847.888 151.316 849.48 152.884 849.48 154.849V238.791C849.455 240.757 847.888 242.324 845.948 242.324Z" fill="#003D6A"/>
<path d="M545.312 181.569C548.247 179.032 553.097 176.021 559.514 176.021C563.494 176.021 566.827 177.066 569.438 179.081L569.637 179.231C572.274 181.296 573.866 182.539 574.338 185.948L574.438 186.719H581.7L581.576 185.724C580.233 175.499 571.95 168.881 560.434 168.881C551.43 168.881 544.74 172.961 540.685 176.394C534.99 181.246 531.159 187.764 529.916 194.805C528.672 201.87 530.214 208.488 534.268 213.389C538.323 218.315 544.466 221.027 551.53 221.027C562.922 221.027 573.443 214.385 578.318 204.085L578.915 202.816H571.478L571.229 203.313C569.388 206.996 567.026 208.662 563.618 210.777C560.285 212.842 556.529 213.912 552.475 213.912C550.013 213.912 547.699 213.439 545.61 212.469C539.094 209.483 536.034 202.99 537.427 195.103C538.372 190.028 541.233 185.077 545.312 181.569Z" fill="white"/>
<path d="M610.827 181.867C608.116 181.867 605.306 182.415 602.42 183.484C597.247 185.4 592.198 189.978 589.835 194.829C587.447 199.78 586.776 204.557 587.845 209.035C589.636 216.524 595.779 221.002 604.236 221.002C606.897 221.002 609.534 220.529 612.096 219.559C617.244 217.668 621.622 213.986 624.433 209.259C625.825 206.92 628.86 200.725 627.144 193.734C625.353 186.395 619.11 181.867 610.827 181.867ZM620.155 201.198C619.508 204.88 617.518 208.363 614.707 210.702C612.718 212.369 609.41 214.359 605.107 214.359C600.555 214.359 596.725 211.921 595.332 208.139C592.67 200.9 597.421 194.083 601.052 191.495C603.888 189.455 606.823 188.485 609.957 188.485C611.623 188.485 613.165 188.808 614.558 189.43C619.085 191.421 621.1 195.7 620.155 201.198Z" fill="white"/>
<path d="M659.728 181.793C653.659 181.793 649.331 184.206 646.421 186.794L647.142 182.664H639.854L633.238 220.107H640.526L643.685 202.219C645.177 193.71 650.425 188.61 657.713 188.61C660.101 188.61 662.041 189.406 663.309 190.924C664.826 192.74 665.374 195.501 664.802 198.711L661.021 220.082H668.309L672.214 197.989C672.711 195.103 672.661 192.59 672.04 190.451C670.423 184.878 666.045 181.793 659.728 181.793Z" fill="white"/>
<path d="M704.697 181.793C698.628 181.793 694.301 184.206 691.415 186.794L692.137 182.664H684.849L678.258 220.107H685.545L688.704 202.219C690.197 193.71 695.445 188.61 702.732 188.61C705.12 188.61 707.06 189.406 708.329 190.924C709.846 192.74 710.393 195.501 709.821 198.711L706.065 220.082H713.353L717.258 197.989C717.755 195.128 717.706 192.59 717.084 190.451C715.393 184.878 711.015 181.793 704.697 181.793Z" fill="white"/>
<path d="M746.159 181.793C743.647 181.793 740.961 182.315 738.175 183.36C730.713 186.147 724.967 193.212 723.525 201.348C722.555 206.896 723.749 212.096 726.808 215.628C729.818 219.087 734.32 221.077 739.195 221.077C747.751 221.077 754.79 216.872 759.043 209.259L759.764 207.941H752.501L752.253 208.364C750.686 210.852 749.368 211.573 747.179 212.718C744.99 213.862 742.602 214.459 740.065 214.459C738.299 214.459 736.732 214.086 735.389 213.34C732.877 211.946 730.042 209.085 730.39 203.413H760.933L761.431 200.626C761.804 197.964 761.704 195.452 761.157 193.138C759.441 186.022 753.845 181.793 746.159 181.793ZM731.783 197.492C733.449 193.685 736.832 190.476 740.563 189.306C742.453 188.709 744.07 188.411 745.313 188.411C748.099 188.411 750.437 189.306 752.054 190.973C753.596 192.566 754.417 194.83 754.466 197.492H731.783Z" fill="white"/>
<path d="M777.497 194.954C779.636 191.894 783.914 188.635 789.461 188.635C794.385 188.635 798.191 191.471 798.663 195.526L798.763 196.297H806.026L805.901 195.327C805.677 193.287 804.956 189.505 802.867 187.092C799.832 183.634 795.505 181.793 790.331 181.793C786.351 181.793 782.77 182.788 779.039 184.903C774.935 187.266 771.527 190.924 769.463 195.253C767.796 198.736 766.453 204.234 767.647 209.235C769.413 216.524 775.557 221.052 783.69 221.052C787.844 221.052 791.799 219.933 795.43 217.693C798.763 215.653 801.723 212.121 803.563 207.991L804.135 206.722L796.922 206.821L796.674 207.294C795.778 209.06 795.007 209.807 793.564 210.951C790.878 213.091 787.943 214.136 784.586 214.136C782.471 214.136 780.68 213.713 779.238 212.917C775.333 210.702 773.691 206.672 774.587 201.572C775.084 199.258 776.029 197.019 777.497 194.954Z" fill="white"/>
<path d="M826.746 189.059H860.548V182.665H827.865L829.88 171.295H822.518L820.503 182.665H812.768L811.648 189.059H819.384L816.051 207.942C815.33 211.997 815.976 215.356 817.916 217.669C819.782 219.884 822.791 221.078 826.597 221.078C829.606 221.078 830.775 220.63 833.86 218.864L834.208 218.665L835.551 211.002L833.86 212.097C832.293 213.117 829.83 214.137 827.865 214.137C826.274 214.137 825.03 213.639 824.259 212.719C823.339 211.624 823.065 209.982 823.413 207.942L826.746 189.059Z" fill="white"/>
</svg>
